<mxfile host="app.diagrams.net" modified="2024-05-23T09:42:38.304Z" agent="Mozilla/5.0 (Windows NT 10.0; Win64; x64) AppleWebKit/537.36 (KHTML, like Gecko) Chrome/124.0.0.0 Safari/537.36" etag="kxiq85wghF2pfDwdOw-V" version="24.4.6" type="device">
  <diagram name="Page-1" id="0SBXd49LUMcfFHOJyT-W">
    <mxGraphModel dx="1013" dy="746" grid="1" gridSize="10" guides="1" tooltips="1" connect="1" arrows="1" fold="1" page="1" pageScale="1" pageWidth="2336" pageHeight="1654" math="0" shadow="0">
      <root>
        <mxCell id="0" />
        <mxCell id="1" parent="0" />
        <mxCell id="LVzLQ8PIczJLZQD4RkMt-54" value="C8 Occupation (temporal entity)" style="rounded=0;whiteSpace=wrap;html=1;strokeColor=#007FFF;" parent="1" vertex="1">
          <mxGeometry x="1460" y="610" width="130" height="60" as="geometry" />
        </mxCell>
        <mxCell id="k4S215dzI5b8nacuZygM-1" value="C7 Occupation (&quot;ActivitÃ© professionnelle&quot;) (&lt;b&gt;titre_profession&lt;/b&gt;)" style="rounded=0;whiteSpace=wrap;html=1;strokeColor=#FF0000;" parent="1" vertex="1">
          <mxGeometry x="1100" y="605" width="137" height="70" as="geometry" />
        </mxCell>
        <mxCell id="k4S215dzI5b8nacuZygM-2" value="" style="endArrow=classic;html=1;rounded=0;entryX=1;entryY=0.5;entryDx=0;entryDy=0;exitX=0;exitY=0.5;exitDx=0;exitDy=0;" parent="1" source="LVzLQ8PIczJLZQD4RkMt-54" target="k4S215dzI5b8nacuZygM-1" edge="1">
          <mxGeometry width="50" height="50" relative="1" as="geometry">
            <mxPoint x="1370" y="760" as="sourcePoint" />
            <mxPoint x="1178" y="610" as="targetPoint" />
          </mxGeometry>
        </mxCell>
        <mxCell id="LVzLQ8PIczJLZQD4RkMt-16" value="sdh-so:P5 is about" style="rounded=0;whiteSpace=wrap;html=1;strokeColor=#FFFFFF;" parent="1" vertex="1">
          <mxGeometry x="1290" y="620" width="120" height="40" as="geometry" />
        </mxCell>
        <mxCell id="k4S215dzI5b8nacuZygM-7" value="E21 Person" style="rounded=0;whiteSpace=wrap;html=1;" parent="1" vertex="1">
          <mxGeometry x="1455" y="827" width="130" height="60" as="geometry" />
        </mxCell>
        <mxCell id="d6AP73_pV0fvFqpWeXNd-1" value="" style="endArrow=classic;html=1;rounded=0;exitX=0.5;exitY=1;exitDx=0;exitDy=0;entryX=0.5;entryY=0;entryDx=0;entryDy=0;" parent="1" target="k4S215dzI5b8nacuZygM-7" edge="1">
          <mxGeometry width="50" height="50" relative="1" as="geometry">
            <mxPoint x="1519.5" y="670" as="sourcePoint" />
            <mxPoint x="1520" y="830" as="targetPoint" />
          </mxGeometry>
        </mxCell>
        <mxCell id="d6AP73_pV0fvFqpWeXNd-2" value="crm:P4 is occupation of" style="rounded=0;whiteSpace=wrap;html=1;strokeColor=#FFFFFF;" parent="1" vertex="1">
          <mxGeometry x="1455" y="730" width="130" height="40" as="geometry" />
        </mxCell>
        <mxCell id="d6AP73_pV0fvFqpWeXNd-4" value="" style="endArrow=classic;html=1;rounded=0;entryX=0;entryY=0.5;entryDx=0;entryDy=0;exitX=1;exitY=0.5;exitDx=0;exitDy=0;" parent="1" target="d6AP73_pV0fvFqpWeXNd-5" edge="1">
          <mxGeometry width="50" height="50" relative="1" as="geometry">
            <mxPoint x="1590" y="639.5" as="sourcePoint" />
            <mxPoint x="1822" y="639.5" as="targetPoint" />
          </mxGeometry>
        </mxCell>
        <mxCell id="d6AP73_pV0fvFqpWeXNd-5" value="E52 Time-Span (&quot;1836&quot;)" style="rounded=0;whiteSpace=wrap;html=1;" parent="1" vertex="1">
          <mxGeometry x="1830" y="610" width="130" height="60" as="geometry" />
        </mxCell>
        <mxCell id="d6AP73_pV0fvFqpWeXNd-6" value="sdh-so:P4 has time-span" style="rounded=0;whiteSpace=wrap;html=1;strokeColor=#FFFFFF;" parent="1" vertex="1">
          <mxGeometry x="1640" y="620" width="140" height="40" as="geometry" />
        </mxCell>
      </root>
    </mxGraphModel>
  </diagram>
</mxfile>
